<svg width="282" height="103" viewBox="0 0 282 103" fill="none" xmlns="http://www.w3.org/2000/svg">
<g clip-path="url(#clip0_117_1481)">
<path d="M86.3343 0H70.5V5.14548H86.3343V0Z" fill="#90323D"/>
<path d="M86.3343 11.1515H70.5V16.2987H86.3343V11.1515Z" fill="#90323D"/>
<path d="M86.3343 22.3083H70.5V27.4538H86.3343V22.3083Z" fill="#90323D"/>
<path d="M86.3343 33.458H70.5V38.607H86.3343V33.458Z" fill="#90323D"/>
<path d="M86.3343 44.613H70.5V49.7603H86.3343V44.613Z" fill="#90323D"/>
<path d="M86.3343 55.7645H70.5V60.9118H86.3343V55.7645Z" fill="#90323D"/>
<path d="M111.367 22.3083H95.5345V27.4538H111.367V22.3083Z" fill="#90323D"/>
<path d="M111.367 33.458H95.5345V38.607H111.367V33.458Z" fill="#90323D"/>
<path d="M111.367 44.613H95.5345V49.7603H111.367V44.613Z" fill="#90323D"/>
<path d="M111.367 55.7645H95.5345V60.9118H111.367V55.7645Z" fill="#90323D"/>
<path d="M111.367 22.3083H95.5345V27.4538H111.367V22.3083Z" fill="#90323D"/>
<path d="M111.367 33.458H95.5345V38.607H111.367V33.458Z" fill="#90323D"/>
<path d="M111.367 44.613H95.5345V49.7603H111.367V44.613Z" fill="#90323D"/>
<path d="M111.367 55.7645H95.5345V60.9118H111.367V55.7645Z" fill="#90323D"/>
<path d="M136.4 11.1515H120.567V16.2987H136.4V11.1515Z" fill="#90323D"/>
<path d="M136.4 22.3083H120.567V27.4538H136.4V22.3083Z" fill="#90323D"/>
<path d="M136.4 33.458H120.567V38.607H136.4V33.458Z" fill="#90323D"/>
<path d="M136.4 44.613H120.567V49.7603H136.4V44.613Z" fill="#90323D"/>
<path d="M136.4 55.7645H120.567V60.9118H136.4V55.7645Z" fill="#90323D"/>
<path d="M136.4 11.1515H120.567V16.2987H136.4V11.1515Z" fill="#90323D"/>
<path d="M136.4 22.3083H120.567V27.4538H136.4V22.3083Z" fill="#90323D"/>
<path d="M136.4 33.458H120.567V38.607H136.4V33.458Z" fill="#90323D"/>
<path d="M136.4 44.613H120.567V49.7603H136.4V44.613Z" fill="#90323D"/>
<path d="M136.4 55.7645H120.567V60.9118H136.4V55.7645Z" fill="#90323D"/>
<path d="M161.431 44.613H145.598V49.7603H161.431V44.613Z" fill="#90323D"/>
<path d="M161.431 55.7645H145.598V60.9118H161.431V55.7645Z" fill="#90323D"/>
<path d="M161.431 44.613H145.598V49.7603H161.431V44.613Z" fill="#90323D"/>
<path d="M161.431 55.7645H145.598V60.9118H161.431V55.7645Z" fill="#90323D"/>
<path d="M186.465 11.1515H170.633V16.2987H186.465V11.1515Z" fill="#90323D"/>
<path d="M186.465 22.3083H170.633V27.4538H186.465V22.3083Z" fill="#90323D"/>
<path d="M186.465 33.458H170.633V38.607H186.465V33.458Z" fill="#90323D"/>
<path d="M186.465 44.613H170.633V49.7603H186.465V44.613Z" fill="#90323D"/>
<path d="M186.465 55.7645H170.633V60.9118H186.465V55.7645Z" fill="#90323D"/>
<path d="M186.465 11.1515H170.633V16.2987H186.465V11.1515Z" fill="#90323D"/>
<path d="M186.465 22.3083H170.633V27.4538H186.465V22.3083Z" fill="#90323D"/>
<path d="M186.465 33.458H170.633V38.607H186.465V33.458Z" fill="#90323D"/>
<path d="M186.465 44.613H170.633V49.7603H186.465V44.613Z" fill="#90323D"/>
<path d="M186.465 55.7645H170.633V60.9118H186.465V55.7645Z" fill="#90323D"/>
<path d="M211.5 0H195.669V5.14548H211.5V0Z" fill="#90323D"/>
<path d="M211.5 11.1515H195.669V16.2987H211.5V11.1515Z" fill="#90323D"/>
<path d="M211.5 22.3083H195.669V27.4538H211.5V22.3083Z" fill="#90323D"/>
<path d="M211.5 33.458H195.669V38.607H211.5V33.458Z" fill="#90323D"/>
<path d="M211.5 44.613H195.669V49.7603H211.5V44.613Z" fill="#90323D"/>
<path d="M211.5 55.7645H195.669V60.9118H211.5V55.7645Z" fill="#90323D"/>
<path d="M3.05984 92.3501C2.82046 92.4828 2.57574 92.7055 2.57574 93.3508C2.57574 93.8538 2.73791 94.1288 3.15439 94.3311C3.5756 94.5357 4.04533 94.5506 4.06904 94.5512L13.4327 94.5879C15.0598 94.5879 17.4879 95.5954 17.4879 98.3709C17.4879 101.146 15.2314 102.154 13.7145 102.154H7.67836e-05V99.5712H13.7035C13.8159 99.5673 14.1514 99.5249 14.428 99.3715C14.6675 99.2387 14.9122 99.016 14.9122 98.3708C14.9122 97.8678 14.75 97.5928 14.3335 97.3905C13.9136 97.1865 13.4443 97.1711 13.4181 97.1704L4.0604 97.1286V97.1337C2.42819 97.1337 0 96.1262 0 93.3507C0 90.5752 2.25646 89.5677 3.77335 89.5677H17.4878V92.1504H3.78487C3.67264 92.1543 3.33681 92.1967 3.06011 92.3501L3.05984 92.3501ZM37.5437 90.8595C38.5508 91.8605 38.5425 93.3083 38.5297 95.4999C38.5287 95.663 38.5278 95.8321 38.5271 96.0072C38.5222 97.3079 38.5188 98.2476 38.3826 99.0401C38.2666 99.7158 37.9988 100.69 37.018 101.345C35.7758 102.175 33.9201 102.194 29.8549 102.235C29.22 102.241 28.6345 102.246 28.0943 102.246C24.8733 102.246 23.2541 102.075 22.2194 101.044C21.1418 99.9711 21.1479 98.3904 21.1568 95.9977C21.1667 93.328 21.1727 91.7166 22.5226 90.7162C23.6872 89.8532 25.3786 89.8305 29.0843 89.7805L29.8239 89.7703C34.4421 89.7042 36.3538 89.6767 37.5438 90.8597L37.5437 90.8595ZM35.9713 95.4848C35.9785 94.2254 35.9861 92.9229 35.7424 92.6809C35.44 92.3803 34.0829 92.3109 32.2767 92.3109C31.5335 92.3109 30.7139 92.3227 29.8607 92.3349L29.1189 92.3451C26.4641 92.3808 24.546 92.4067 24.0439 92.7786C23.727 93.0134 23.7219 94.4005 23.7159 96.0069C23.7103 97.4985 23.7049 98.9074 24.0233 99.2244C24.523 99.7222 27.2205 99.6951 29.8296 99.6692C32.8254 99.6392 34.9899 99.6175 35.5991 99.2103C35.9578 98.9706 35.9623 97.7234 35.9688 95.9972C35.9694 95.8204 35.9704 95.6496 35.9714 95.4847L35.9713 95.4848ZM57.1133 89.6967H59.6893V102.073L44.7777 94.2643V102.246H42.2016V89.87L57.1137 97.6784V89.6967H57.1133ZM66.4172 92.3501C66.1778 92.4828 65.9331 92.7055 65.9331 93.3508C65.9331 93.8538 66.0952 94.1288 66.5117 94.3311C66.9329 94.5357 67.4027 94.5506 67.4264 94.5512L76.7901 94.5879C78.4171 94.5879 80.8452 95.5954 80.8452 98.3709C80.8452 101.146 78.5887 102.154 77.0719 102.154H63.3574V99.5712H77.0609C77.1732 99.5673 77.5088 99.5249 77.7853 99.3715C78.0248 99.2387 78.2695 99.016 78.2695 98.3708C78.2695 97.8678 78.1074 97.5928 77.6909 97.3905C77.2709 97.1865 76.8016 97.1711 76.7754 97.1704L67.4177 97.1286V97.1337C65.7855 97.1337 63.3573 96.1262 63.3573 93.3507C63.3573 90.5752 65.6138 89.5677 67.1307 89.5677H80.8451V92.1504H67.1422C67.03 92.1543 66.6941 92.1967 66.4175 92.3501L66.4172 92.3501ZM110.15 92.1548C111.198 93.2213 111.765 94.5876 111.744 96.0018C111.719 97.7526 110.877 99.3501 109.374 100.5C107.808 101.698 105.605 102.331 103.001 102.331C98.0317 102.331 95.5308 102.258 95.5061 102.257L94.2566 102.22V89.7085H103.001C106.921 89.7085 109.052 91.0387 110.15 92.1547L110.15 92.1548ZM103.001 99.7492C107.224 99.7492 109.142 97.8487 109.169 95.9653C109.179 95.2374 108.884 94.5469 108.315 93.9684C107.252 92.8871 105.365 92.2917 103.001 92.2917H96.8329V99.703C98.029 99.7239 100.084 99.7492 103.001 99.7492L103.001 99.7492ZM132.923 92.2913L118.011 92.2913V94.6964L127.956 94.7335L127.947 97.3163L118.01 97.2792V99.6754H132.923V102.258H115.434V89.7088H132.923V92.2913L132.923 92.2913ZM146.334 89.5674H163.822V92.1501H156.365V102.153H153.789V92.1501H146.334V89.5674H146.334ZM172.083 89.0565L182.152 102.466H178.915L176.099 98.7291H168.067L165.293 102.466H162.091L172.083 89.0565ZM169.999 96.1465H174.167L172.083 93.3609L169.999 96.1465ZM210.118 89.7732H213.307L203.413 103L193.517 89.7732H196.706L203.412 98.7377L210.118 89.7732ZM218.475 102.273H215.924V89.847H218.475V102.273ZM224.733 99.6266H239.645V102.209H222.157V89.6601H224.733V99.6263L224.733 99.6266ZM245.91 99.6266H260.822V102.209H243.334V89.6601H245.91V99.6263L245.91 99.6266ZM282 92.2913L267.088 92.2913V94.6964L277.034 94.7335L277.024 97.3163L267.088 97.2792V99.6754H282V102.258H264.512V89.7088H282V92.2913L282 92.2913Z" fill="black"/>
</g>
<defs>
<clipPath id="clip0_117_1481">
<rect width="282" height="103" fill="white"/>
</clipPath>
</defs>
</svg>
